PathFileType	4	(X/Y/Z)	C:\Vicon\SynologyDrive\Alex P\Athlete_3\Athlete_3_22_07_06\static_01\marker_experimental.trc																																																																																																																																																																																																																									
DataRate	CameraRate	NumFrames	NumMarkers	Units	OrigDataRate	OrigDataStartFrame	OrigNumFrames																																																																																																																																																																																																																					
200	200	4	79	mm	200	346	693																																																																																																																																																																																																																					
Frame#	Time	GLAB			RFHD			LFHD			C7			T6			SPINMOL			SPINM2			SPINM3			T12			BELTOL			BELT2			BELT3			SACROL			SACR2			SACR3			LASI			RASI			LPSI			RPSI			LTHOL			LTH2			LTH3			LKNEL			LKNEM			LFIB			LSHAOL			LSHA2			LSHA3			LMALL			LMALM			LHEE			LTOE			LM5			RTHOL			RTH2			RTH3			RKNEL			RKNEM			RFIB			RSHAOL			RSHA2			RSHA3			RMALL			RMALM			RHEE			RTOE			RM5			STRN			XIPH			LACR			LUAOL			LUA2			LUA3			LCUBL			LCUBM			LLAOL			LLA2			LLA3			LWRR			LWRU			RACR			RUAOL			RUA2			RUA3			RCUBL			RCUBM			RLAOL			RLA2			RLA3			RWRR			RWRU			Bar:BL			Bar:BR		 	LKJCWK			RKJCWK			RAJCWK			LAJCWK			RHJCWK			LHJCWK
		X1	Y1	Z1	X2	Y2	Z2	X3	Y3	Z3	X4	Y4	Z4	X5	Y5	Z5	X6	Y6	Z6	X7	Y7	Z7	X8	Y8	Z8	X9	Y9	Z9	X10	Y10	Z10	X11	Y11	Z11	X12	Y12	Z12	X13	Y13	Z13	X14	Y14	Z14	X15	Y15	Z15	X16	Y16	Z16	X17	Y17	Z17	X18	Y18	Z18	X19	Y19	Z19	X20	Y20	Z20	X21	Y21	Z21	X22	Y22	Z22	X23	Y23	Z23	X24	Y24	Z24	X25	Y25	Z25	X26	Y26	Z26	X27	Y27	Z27	X28	Y28	Z28	X29	Y29	Z29	X30	Y30	Z30	X31	Y31	Z31	X32	Y32	Z32	X33	Y33	Z33	X34	Y34	Z34	X35	Y35	Z35	X36	Y36	Z36	X37	Y37	Z37	X38	Y38	Z38	X39	Y39	Z39	X40	Y40	Z40	X41	Y41	Z41	X42	Y42	Z42	X43	Y43	Z43	X44	Y44	Z44	X45	Y45	Z45	X46	Y46	Z46	X47	Y47	Z47	X48	Y48	Z48	X49	Y49	Z49	X50	Y50	Z50	X51	Y51	Z51	X52	Y52	Z52	X53	Y53	Z53	X54	Y54	Z54	X55	Y55	Z55	X56	Y56	Z56	X57	Y57	Z57	X58	Y58	Z58	X59	Y59	Z59	X60	Y60	Z60	X61	Y61	Z61	X62	Y62	Z62	X63	Y63	Z63	X64	Y64	Z64	X65	Y65	Z65	X66	Y66	Z66	X67	Y67	Z67	X68	Y68	Z68	X69	Y69	Z69	X70	Y70	Z70	X71	Y71	Z71	X72	Y72	Z72	X73	Y73	Z73	X74 	Y74 	Z74 	X75 	Y75 	Z75 	X76 	Y76 	Z76 	X77 	Y77 	Z77 	X78 	Y78 	Z78 	X79 	Y79 	Z79
																																																																																																																																																																																																																												
347	1.73	358.3355	1572.0336	-1216.3982	300.0056	1587.4263	-1139.6044	294.976	1587.9371	-1291.7284	133.0523	1449.1067	-1212.1791	78.1911	1244.2874	-1226.7581	73.8534	1211.9922	-1230.9666	68.8302	1151.1211	-1179.0889	78.1725	1150.2074	-1227.9542	91.4053	1109.2715	-1226.7568	68.0427	1086.802	-1226.0094	69.4212	1027.2184	-1172.8729	61.7707	1025.0272	-1222.4673	72.7735	975.5677	-1247.9012	79.9074	985.0769	-1198.0538	49.111	927.1843	-1209.3082	288.5398	942.5193	-1336.6837	292.8943	942.0527	-1109.1235	84.2864	991.5231	-1259.6609	85.1724	990.2688	-1170.5666	202.4121	737.5311	-1443.9171	153.1873	676.9619	-1426.9323	201.6142	675.691	-1441.3004	192.978	497.9206	-1427.2543	216.5498	466.1578	-1283.2006	152.7692	442.3216	-1428.3514	145.126	326.205	-1449.8137	101.8869	260.2519	-1444.4608	151.2147	264.3517	-1450.0319	126.145	85.3335	-1434.0995	169.3895	96.3052	-1350.458	78.4359	38.9116	-1374.8042	289.626	47.3065	-1391.2239	238.5587	32.0997	-1492.1447	175.5125	708.259	-1006.3516	206.8499	636.0132	-992.6071	161.0695	647.6222	-1009.5441	160.9991	496.8752	-1013.82	209.0994	461.509	-1151.6995	116.9554	442.4753	-1015.3002	91.4693	323.1903	-998.2841	131.1708	256.0108	-983.1539	85.1152	262.1696	-1002.2968	90.0572	86.7589	-1016.7847	153.0367	97.0047	-1084.2733	58.0457	38.239	-1077.677	261.5869	43.2054	-1022.2497	202.3486	40.9664	-937.2039	281.8882	1365.6027	-1225.0226	318.7017	1208.0358	-1227.0365	142.6315	1412.7164	-1400.4825	130.1671	1346.7719	-1513.8008	120.7619	1296.1384	-1556.0015	154.9533	1331.4557	-1573.2026	166.4736	1293.4916	-1681.375	188.9237	1207.6332	-1630.8967	195.2716	1261.0414	-1766.8616	200.596	1224.3489	-1821.2314	239.3991	1255.4491	-1815.026	308.5205	1183.3243	-1859.9384	251.269	1205.4266	-1902.6118	160.5955	1402.2262	-1041.7037	171.0188	1335.3362	-909.3342	221.1408	1326.4893	-866.4565	176.006	1315.5049	-845.8395	168.4861	1288.938	-795.3035	223.796	1195.0732	-809.039	226.2819	1271.0859	-672.8207	277.0688	1259.423	-633.0016	232.2984	1246.626	-612.9095	314.6202	1179.0814	-580.3804	248.6777	1211.5745	-543.7709	1512.0884	1285.4519	-2307.4128	1540.6631	1283.4111	-83.9504	204.7639	482.0392	-1355.2274	185.0493	479.1921	-1082.7597	119.8326	81.4255	-1049.6589	146.2272	80.2485	-1393.2799	233.1332	873.4952	-1139.4592	229.9776	873.8333	-1304.365
348	1.735	358.305	1572.0231	-1216.4023	299.9639	1587.4076	-1139.5996	294.9413	1587.9298	-1291.7203	133.0209	1449.0941	-1212.1774	78.1753	1244.2753	-1226.7637	73.8345	1211.9766	-1230.9641	68.8176	1151.1023	-1179.0975	78.1755	1150.1948	-1227.9611	91.3954	1109.2598	-1226.7678	68.0366	1086.7876	-1226.0201	69.4138	1027.1996	-1172.8834	61.7622	1025.0088	-1222.4823	72.8172	975.5461	-1247.9125	79.8154	985.1138	-1198.1528	49.1143	927.1622	-1209.308	288.548	942.5295	-1336.6877	292.8966	942.0629	-1109.1302	84.2835	991.52	-1259.6737	85.1634	990.2544	-1170.5792	202.41	737.5258	-1443.9196	153.1906	676.9709	-1426.9382	201.621	675.7227	-1441.3572	192.9829	497.9163	-1427.2599	216.5289	466.1397	-1283.225	152.768	442.3134	-1428.3535	145.1217	326.2051	-1449.8159	101.8947	260.2454	-1444.465	151.216	264.3459	-1450.0353	126.1357	85.3336	-1434.0963	169.3846	96.2973	-1350.4465	78.4369	38.9083	-1374.7987	289.6326	47.3088	-1391.2266	238.5584	32.1003	-1492.1438	175.5072	708.2493	-1006.3714	206.8557	636.0152	-992.625	161.0545	647.6158	-1009.5604	160.9928	496.8729	-1013.8347	209.1087	461.5054	-1151.7053	116.9442	442.4718	-1015.3104	91.5435	323.2556	-998.3815	131.1559	255.9982	-983.1575	85.1159	262.1729	-1002.3135	90.0609	86.7585	-1016.7844	153.0408	97.0021	-1084.277	58.0434	38.2423	-1077.6732	261.5889	43.2055	-1022.2499	202.3489	40.9661	-937.2043	281.8483	1365.6138	-1225.0238	318.6857	1208.043	-1227.0427	142.6719	1412.6619	-1400.4663	130.1621	1346.7795	-1513.8169	120.7764	1296.1244	-1555.9891	154.97	1331.4282	-1573.1965	166.4611	1293.4465	-1681.3568	188.9335	1207.5935	-1630.86	195.2901	1260.9895	-1766.809	200.6302	1224.2953	-1821.2086	239.4221	1255.3949	-1814.9871	308.5573	1183.2615	-1859.881	251.3171	1205.3569	-1902.5693	160.568	1402.2223	-1041.7148	171.001	1335.334	-909.3174	221.1172	1326.4735	-866.4648	176.0034	1315.4927	-845.8417	168.4822	1288.9261	-795.3094	223.7879	1195.0576	-809.0507	226.261	1270.9569	-672.8966	276.9708	1259.4194	-633.2579	232.3251	1246.7041	-612.8727	314.6268	1179.0415	-580.4122	248.696	1211.5494	-543.7861	1512.0785	1285.4502	-2307.3994	1540.6643	1283.4086	-83.9519	204.7559	482.028	-1355.2424	185.0507	479.1891	-1082.77	119.8365	81.424	-1049.6603	146.2201	80.2445	-1393.272	233.1431	873.4995	-1139.4662	229.9918	873.8377	-1304.372
349	1.74	358.2469	1572.0127	-1216.4113	299.9155	1587.3895	-1139.6003	294.9065	1587.9274	-1291.7186	132.978	1449.0842	-1212.1763	78.1499	1244.2531	-1226.7754	73.8104	1211.9706	-1230.9761	68.8061	1151.0897	-1179.0994	78.1599	1150.1776	-1227.9611	91.3806	1109.2548	-1226.7762	68.0264	1086.7648	-1226.028	69.4035	1027.1842	-1172.8903	61.7509	1024.9932	-1222.4948	72.7592	975.4661	-1247.8707	79.824	985.1036	-1198.178	49.1154	927.1501	-1209.3257	288.5621	942.538	-1336.6973	292.9044	942.0784	-1109.1296	84.2775	991.508	-1259.687	85.1597	990.2447	-1170.5865	202.4118	737.524	-1443.9344	153.1942	676.9526	-1426.9568	201.6205	675.7033	-1441.3582	192.9846	497.9093	-1427.2671	216.5444	466.1352	-1283.1895	152.7772	442.317	-1428.3629	145.1306	326.208	-1449.827	101.8954	260.2405	-1444.4592	151.2128	264.3455	-1450.0428	126.1422	85.3304	-1434.0972	169.384	96.2954	-1350.4503	78.4277	38.9055	-1374.8053	289.6275	47.3036	-1391.2294	238.5677	32.0994	-1492.1493	175.5035	708.2511	-1006.3893	206.8481	636.0131	-992.6396	161.0535	647.615	-1009.5735	160.9876	496.8689	-1013.8452	209.123	461.5036	-1151.7117	116.9458	442.4779	-1015.3204	91.5182	323.245	-998.388	131.1557	256.0038	-983.1639	85.1091	262.1705	-1002.3194	90.0622	86.7628	-1016.7829	153.0431	97.0005	-1084.2781	58.0511	38.2346	-1077.6719	261.5843	43.2029	-1022.2499	202.3509	40.9601	-937.2126	281.8136	1365.6224	-1225.0341	318.6548	1208.0525	-1227.0466	142.6564	1412.6592	-1400.4658	130.1797	1346.7844	-1513.8468	120.7566	1296.1211	-1555.9653	154.9833	1331.4021	-1573.1815	166.4519	1293.3844	-1681.3406	188.9245	1207.5618	-1630.8226	195.2972	1260.9463	-1766.79	200.6683	1224.2247	-1821.1852	239.4476	1255.3334	-1814.9519	308.6101	1183.2079	-1859.8248	251.3783	1205.2896	-1902.5334	160.5275	1402.2211	-1041.7231	170.9972	1335.325	-909.3112	221.102	1326.4651	-866.4839	175.9925	1315.4786	-845.852	168.4726	1288.9259	-795.3165	223.8926	1195.1777	-809.0614	226.3143	1271.0052	-672.8416	277.0999	1259.3506	-633.0516	232.3402	1246.5762	-612.9419	314.6245	1179.0043	-580.4385	248.7135	1211.5315	-543.8055	1512.0745	1285.4537	-2307.3936	1540.6704	1283.4136	-83.9445	204.7645	482.0223	-1355.2283	185.0553	479.1863	-1082.7784	119.8383	81.4253	-1049.6599	146.2229	80.242	-1393.2747	233.1601	873.5068	-1139.4703	230.0135	873.8399	-1304.376
350	1.745	358.1978	1571.9871	-1216.3944	299.8862	1587.3885	-1139.5938	294.872	1587.9225	-1291.7159	132.9361	1449.0841	-1212.1873	78.1242	1244.2397	-1226.7847	73.7995	1211.962	-1230.9874	68.7876	1151.0792	-1179.1049	78.1573	1150.1719	-1227.9708	91.3684	1109.2423	-1226.7781	68.0218	1086.7512	-1226.0394	69.4088	1027.1681	-1172.9089	61.7582	1024.9785	-1222.5122	72.7316	975.4371	-1247.8773	79.812	985.0798	-1198.1902	49.1144	927.1384	-1209.3481	288.5683	942.5469	-1336.7108	292.8963	942.0854	-1109.1438	84.2884	991.4979	-1259.6948	85.1628	990.2325	-1170.611	202.4155	737.5258	-1443.9561	153.191	676.9536	-1426.9418	201.6232	675.7109	-1441.4093	192.9904	497.9114	-1427.2782	216.5536	466.1456	-1283.2164	152.7753	442.3111	-1428.3709	145.1284	326.2098	-1449.8428	101.8953	260.2404	-1444.4629	151.2183	264.3407	-1450.0396	126.1383	85.3267	-1434.1001	169.3764	96.2952	-1350.4534	78.4404	38.9072	-1374.796	289.6218	47.3036	-1391.236	238.5608	32.1013	-1492.1509	175.4955	708.2493	-1006.4033	206.8317	636.0126	-992.6445	161.0407	647.6118	-1009.5798	160.9817	496.8749	-1013.8514	209.1303	461.4951	-1151.712	116.9447	442.4748	-1015.3358	91.4135	323.267	-998.1349	131.1489	255.9961	-983.1738	85.1128	262.1587	-1002.3312	90.0666	86.7621	-1016.7836	153.0413	96.997	-1084.2761	58.048	38.2462	-1077.6725	261.5794	43.1999	-1022.2532	202.351	40.9636	-937.2117	281.782	1365.6268	-1225.0411	318.6322	1208.0594	-1227.0405	142.6484	1412.6543	-1400.469	130.1564	1346.7861	-1513.8223	120.7661	1296.1235	-1555.9512	154.9689	1331.376	-1573.1675	166.4411	1293.3428	-1681.3325	188.9084	1207.5162	-1630.8074	195.2823	1260.9049	-1766.7814	200.7124	1224.157	-1821.1539	239.4846	1255.2778	-1814.9298	308.6667	1183.1644	-1859.7723	251.439	1205.2239	-1902.489	160.4831	1402.2174	-1041.729	170.894	1335.295	-909.2526	221.099	1326.4769	-866.4938	175.9844	1315.468	-845.861	168.4645	1288.9215	-795.3173	223.8989	1195.1696	-809.0787	226.2668	1270.9517	-672.9166	277.0035	1259.3904	-633.2688	232.2238	1246.6511	-612.9619	314.6259	1178.9684	-580.471	248.7269	1211.5031	-543.8138	1512.0996	1285.4542	-2307.4194	1540.674	1283.4148	-83.9474	204.772	482.0285	-1355.2473	185.056	479.185	-1082.7817	119.8395	81.4233	-1049.6592	146.2168	80.2401	-1393.2773	233.1594	873.5095	-1139.4885	230.023	873.8439	-1304.394
